<svg width="242" height="80" viewBox="0 0 242 80" fill="none" xmlns="http://www.w3.org/2000/svg">
<path d="M40.8399 57.76C42.3799 56.92 43.0099 55.52 43.0099 54.26C43.0099 52.51 41.8899 50.97 39.9999 50.97C39.5099 50.97 38.9499 51.04 38.3199 51.32C35.4499 52.51 32.2999 53.14 29.2199 53.14C20.1199 53.14 11.3699 47.68 11.3699 35.15C11.3699 22.48 20.1199 17.23 29.1499 17.23C32.2999 17.23 35.5199 17.86 38.3899 19.05C39.0199 19.33 39.5799 19.4 40.0699 19.4C41.9599 19.4 43.0799 17.86 43.0799 16.11C43.0799 14.78 42.4499 13.38 40.9799 12.61C37.4799 10.79 33.2099 9.81 28.7299 9.81C16.4799 9.81 3.17988 17.3 3.17988 35.15C3.17988 52.93 16.4799 60.63 28.7299 60.63C33.1399 60.63 37.4099 59.65 40.8399 57.76ZM70.0556 22.9C64.3856 22.9 60.3956 25.35 58.0856 29.62V11.14C58.0856 8.48 56.1256 7.08 54.0956 7.08C52.1356 7.08 50.1056 8.48 50.1056 11.14V56.36C50.1056 59.02 52.1356 60.42 54.0956 60.42C56.1256 60.42 58.0856 59.02 58.0856 56.36V40.33C58.1556 33.75 61.7956 29.83 67.6756 29.83C72.1556 29.83 76.6356 32.14 76.6356 39.91V56.22C76.6356 58.95 78.6656 60.42 80.6956 60.42C82.7256 60.42 84.7556 58.95 84.7556 56.22V38.72C84.7556 27.66 77.7556 22.9 70.0556 22.9ZM126.297 23.39C124.267 23.39 122.237 24.72 122.237 27.38V30.25C119.507 25.56 114.327 22.9 108.937 22.9C97.8068 22.9 90.6668 30.95 90.6668 41.73C90.6668 52.23 97.5268 60.7 108.517 60.7C115.097 60.7 120.207 57.55 122.237 52.58V56.43C122.237 59.02 124.267 60.42 126.297 60.42C128.327 60.42 130.287 59.02 130.287 56.43V27.38C130.287 24.72 128.257 23.39 126.297 23.39ZM110.547 53.49C103.687 53.49 98.7868 48.66 98.7868 41.8C98.7868 35.01 103.687 30.18 110.547 30.18C117.337 30.18 122.167 35.22 122.167 41.8C122.167 48.45 117.337 53.49 110.547 53.49ZM155.011 23.53C150.881 23.88 148.221 25.91 146.611 28.92V27.31C146.611 24.65 144.651 23.32 142.621 23.32C140.661 23.32 138.631 24.65 138.631 27.31V56.36C138.631 59.02 140.661 60.42 142.621 60.42C144.651 60.42 146.611 59.02 146.611 56.36V38.37C146.611 33.33 149.831 30.6 154.941 30.53C158.511 30.46 159.421 28.15 159.421 26.75C159.421 25.07 158.161 23.25 155.011 23.53ZM168.462 19.12C171.052 19.12 173.152 17.02 173.152 14.43C173.152 11.84 171.052 9.67 168.462 9.67C165.872 9.67 163.702 11.77 163.702 14.43C163.702 17.02 165.872 19.12 168.462 19.12ZM164.402 56.36C164.402 59.02 166.502 60.42 168.462 60.42C170.422 60.42 172.452 59.02 172.452 56.36V27.31C172.452 24.65 170.422 23.32 168.462 23.32C166.432 23.32 164.402 24.65 164.402 27.31V56.36ZM192.43 23.67V16.74C192.43 14.08 190.4 12.75 188.44 12.75C186.48 12.75 184.38 14.08 184.38 16.74V23.67H181.51C179.83 23.67 178.36 25.14 178.36 26.82C178.36 28.57 179.83 29.97 181.51 29.97H184.38V56.36C184.38 59.02 186.48 60.42 188.44 60.42C190.4 60.42 192.43 59.02 192.43 56.36V29.97H197.68C199.36 29.97 200.83 28.57 200.83 26.82C200.83 25.07 199.36 23.67 197.68 23.67H192.43ZM232.047 26.05C227.007 39.35 224.557 45.72 222.527 52.23C220.427 45.51 217.627 38.58 212.727 25.98C211.957 24.09 210.487 23.32 209.017 23.32C206.847 23.32 204.677 25 204.677 27.31C204.677 27.8 204.747 28.36 205.027 28.92L218.397 60.21L213.987 71.2C213.777 71.83 213.637 72.39 213.637 72.88C213.637 75.12 215.667 76.52 217.627 76.52C219.097 76.52 220.567 75.75 221.267 74L239.607 28.78C239.817 28.22 239.957 27.66 239.957 27.1C239.957 24.86 237.857 23.25 235.827 23.25C234.287 23.25 232.747 24.09 232.047 26.05Z" fill="white"/>
<circle cx="168.5" cy="14.5" r="5.5" fill="url(#paint0_linear_9_11190)"/>
<defs>
<linearGradient id="paint0_linear_9_11190" x1="162.23" y1="10.705" x2="172.185" y2="19.56" gradientUnits="userSpaceOnUse">
<stop stop-color="#FDD01B"/>
<stop offset="1" stop-color="#EF2A24"/>
</linearGradient>
</defs>
</svg>
