<svg width="285" height="80" viewBox="0 0 285 80" fill="none" xmlns="http://www.w3.org/2000/svg">
<path d="M5.14906 56.29C5.14906 58.53 6.96906 60.42 9.20906 60.42C11.5191 60.42 13.3391 58.53 13.3391 56.29V43.48H23.3491C34.1291 43.48 41.7591 37.18 41.7591 26.68C41.7591 16.04 34.1291 10.3 23.7691 10.3H9.13906C6.61906 10.3 5.14906 11.7 5.14906 14.29V56.29ZM13.3391 17.79H23.7691C29.3691 17.79 33.6391 20.87 33.6391 26.89C33.6391 32.91 29.4391 36.06 23.7691 36.06H13.3391V17.79ZM80.702 23.39C78.672 23.39 76.642 24.72 76.642 27.38V30.25C73.912 25.56 68.732 22.9 63.342 22.9C52.212 22.9 45.072 30.95 45.072 41.73C45.072 52.23 51.932 60.7 62.922 60.7C69.502 60.7 74.612 57.55 76.642 52.58V56.43C76.642 59.02 78.672 60.42 80.702 60.42C82.732 60.42 84.692 59.02 84.692 56.43V27.38C84.692 24.72 82.662 23.39 80.702 23.39ZM64.952 53.49C58.092 53.49 53.192 48.66 53.192 41.8C53.192 35.01 58.092 30.18 64.952 30.18C71.742 30.18 76.572 35.22 76.572 41.8C76.572 48.45 71.742 53.49 64.952 53.49ZM109.416 23.53C105.286 23.88 102.626 25.91 101.016 28.92V27.31C101.016 24.65 99.0563 23.32 97.0263 23.32C95.0663 23.32 93.0363 24.65 93.0363 27.31V56.36C93.0363 59.02 95.0663 60.42 97.0263 60.42C99.0563 60.42 101.016 59.02 101.016 56.36V38.37C101.016 33.33 104.236 30.6 109.346 30.53C112.916 30.46 113.826 28.15 113.826 26.75C113.826 25.07 112.566 23.25 109.416 23.53ZM130.498 23.67V16.74C130.498 14.08 128.468 12.75 126.508 12.75C124.548 12.75 122.448 14.08 122.448 16.74V23.67H119.578C117.898 23.67 116.428 25.14 116.428 26.82C116.428 28.57 117.898 29.97 119.578 29.97H122.448V56.36C122.448 59.02 124.548 60.42 126.508 60.42C128.468 60.42 130.498 59.02 130.498 56.36V29.97H135.748C137.428 29.97 138.898 28.57 138.898 26.82C138.898 25.07 137.428 23.67 135.748 23.67H130.498ZM164.804 22.9C159.204 22.9 155.214 25.35 152.904 29.48V27.31C152.904 24.65 150.874 23.32 148.844 23.32C146.814 23.32 144.784 24.65 144.784 27.31V56.36C144.784 58.95 146.814 60.35 148.844 60.35C150.874 60.35 152.904 58.95 152.904 56.36V40.33C152.974 33.47 156.754 29.83 162.424 29.83C166.974 29.83 171.384 32.21 171.384 39.91V56.22C171.384 58.95 173.414 60.42 175.444 60.42C177.474 60.42 179.504 58.95 179.504 56.22V38.72C179.504 27.59 172.504 22.9 164.804 22.9ZM222.374 39.84C221.254 29.48 214.184 22.9 203.964 22.9C193.114 22.9 185.414 31.09 185.414 41.87C185.414 53.21 193.464 60.7 204.524 60.7C211.174 60.7 216.074 57.48 219.084 53.77C219.714 53 219.994 52.23 219.994 51.46C219.994 49.57 218.314 47.89 216.564 47.89C215.654 47.89 214.674 48.31 213.904 49.36C211.874 52.09 208.934 54.05 204.594 54.05C198.574 54.05 193.534 49.99 193.324 44.11H218.454C221.184 44.11 222.654 42.64 222.374 39.84ZM203.964 29.41C209.984 29.41 214.184 33.4 214.604 38.72H193.394C193.814 33.33 198.154 29.41 203.964 29.41ZM245.178 23.53C241.048 23.88 238.388 25.91 236.778 28.92V27.31C236.778 24.65 234.818 23.32 232.788 23.32C230.828 23.32 228.798 24.65 228.798 27.31V56.36C228.798 59.02 230.828 60.42 232.788 60.42C234.818 60.42 236.778 59.02 236.778 56.36V38.37C236.778 33.33 239.998 30.6 245.108 30.53C248.678 30.46 249.588 28.15 249.588 26.75C249.588 25.07 248.328 23.25 245.178 23.53ZM268.149 60.7C276.829 60.7 282.989 56.78 282.989 49.57C282.989 36.06 261.219 40.26 261.219 33.12C261.219 30.6 263.949 29.06 267.239 29.06C270.249 29.06 272.769 30.46 274.869 32.77C276.059 34.1 277.249 34.59 278.299 34.59C280.049 34.59 281.379 33.05 281.379 31.23C281.379 30.32 281.099 29.27 280.329 28.36C277.739 25.07 272.559 22.97 267.309 22.97C259.679 22.97 253.449 26.96 253.449 33.82C253.449 46.7 274.939 42.85 274.939 50.06C274.939 52.79 272.279 54.4 268.219 54.4C264.369 54.4 261.919 52.86 259.959 49.92C259.049 48.52 257.929 47.96 256.809 47.96C254.849 47.96 253.029 49.71 253.029 51.81C253.029 52.65 253.309 53.49 253.939 54.4C256.739 58.32 261.429 60.7 268.149 60.7Z" fill="white"/>
<circle cx="65.5" cy="42.5" r="8.5" fill="url(#paint0_linear_9_11190)"/>
<defs>
<linearGradient id="paint0_linear_9_11190" x1="55.81" y1="36.635" x2="71.195" y2="50.32" gradientUnits="userSpaceOnUse">
<stop stop-color="#FDD01B"/>
<stop offset="1" stop-color="#EF2A24"/>
</linearGradient>
</defs>
</svg>
