<svg width="332" height="81" viewBox="0 0 332 81" fill="none" xmlns="http://www.w3.org/2000/svg">
<path d="M25.4236 40.8049C32.8436 40.8049 41.5236 36.5349 41.5236 25.9649C41.5236 16.7249 35.0136 11.0549 24.4436 11.0549H9.53359C7.01359 11.0549 5.54359 12.4549 5.54359 15.0449V57.0449C5.54359 59.2849 7.36359 61.1749 9.60359 61.1749C11.9136 61.1749 13.7336 59.2849 13.7336 57.0449C13.7336 49.4149 13.5936 43.7449 13.3836 39.6849L32.6336 59.6349C33.5436 60.5449 34.5236 61.0349 35.6436 61.0349C37.8136 61.0349 39.7036 59.3549 39.7036 57.3949C39.7036 56.5549 39.4236 55.7149 38.6536 54.9449C31.5136 47.5949 26.6136 42.7649 24.1636 40.8049H25.4236ZM23.7436 18.4749C29.9736 18.4749 33.3336 21.8349 33.3336 26.6649C33.3336 31.4949 29.9736 34.9249 23.7436 34.9249H13.7336V18.4749H23.7436ZM65.3367 61.4549C76.5367 61.4549 84.7967 53.4749 84.7967 42.5549C84.7967 31.7049 76.5367 23.6549 65.3367 23.6549C54.1367 23.6549 45.8767 31.7049 45.8767 42.5549C45.8767 53.4749 54.1367 61.4549 65.3367 61.4549ZM65.3367 54.2449C58.6867 54.2449 53.6467 49.2049 53.6467 42.5549C53.6467 35.9049 58.6867 30.8649 65.3367 30.8649C72.0567 30.8649 77.0267 35.9049 77.0267 42.5549C77.0267 49.2049 72.0567 54.2449 65.3367 54.2449ZM124.573 24.1449C122.543 24.1449 120.513 25.4749 120.513 28.1349V31.0049C117.783 26.3149 112.603 23.6549 107.213 23.6549C96.0831 23.6549 88.9431 31.7049 88.9431 42.4849C88.9431 52.9849 95.8031 61.4549 106.793 61.4549C113.373 61.4549 118.483 58.3049 120.513 53.3349V57.1849C120.513 59.7749 122.543 61.1749 124.573 61.1749C126.603 61.1749 128.563 59.7749 128.563 57.1849V28.1349C128.563 25.4749 126.533 24.1449 124.573 24.1449ZM108.823 54.2449C101.963 54.2449 97.0631 49.4149 97.0631 42.5549C97.0631 35.7649 101.963 30.9349 108.823 30.9349C115.613 30.9349 120.443 35.9749 120.443 42.5549C120.443 49.2049 115.613 54.2449 108.823 54.2449ZM170.577 7.83488C168.617 7.83488 166.587 9.23488 166.587 11.8949V31.0049C163.857 26.3149 158.677 23.6549 153.287 23.6549C142.157 23.6549 135.017 31.7049 135.017 42.4849C135.017 52.9849 141.877 61.4549 152.867 61.4549C159.447 61.4549 164.557 58.3049 166.587 53.3349V57.1149C166.587 59.7749 168.617 61.1749 170.577 61.1749C172.537 61.1749 174.567 59.7749 174.567 57.1149V11.8949C174.567 9.23488 172.607 7.83488 170.577 7.83488ZM154.897 54.2449C148.037 54.2449 143.137 49.4149 143.137 42.5549C143.137 35.7649 148.037 30.9349 154.897 30.9349C161.687 30.9349 166.517 35.9749 166.517 42.5549C166.517 49.2049 161.687 54.2449 154.897 54.2449ZM222.393 23.6549C217.003 23.6549 213.153 25.9649 211.053 29.8849C209.023 25.5449 205.173 23.6549 200.833 23.6549C196.353 23.6549 192.923 25.6849 191.033 29.3249V27.9249C191.033 25.3349 189.003 24.0749 187.043 24.0749C185.013 24.0749 182.913 25.4049 182.913 28.0649V57.1149C182.913 59.7049 184.943 61.1049 186.973 61.1049C189.003 61.1049 191.033 59.7049 191.033 57.1149V39.9649C191.103 33.8749 193.973 30.5849 198.453 30.5849C201.953 30.5849 205.313 32.6849 205.313 39.5449V56.9749C205.313 59.7049 207.343 61.1749 209.373 61.1749C211.403 61.1749 213.433 59.7049 213.433 56.9749V39.9649C213.433 33.9449 216.373 30.5849 220.853 30.5849C224.353 30.5849 227.713 32.6849 227.713 39.5449V56.9749C227.713 59.7049 229.743 61.1749 231.773 61.1749C233.803 61.1749 235.833 59.7049 235.833 56.9749V38.2849C235.833 28.0649 229.463 23.6549 222.393 23.6549ZM277.356 24.1449C275.326 24.1449 273.296 25.4749 273.296 28.1349V31.0049C270.566 26.3149 265.386 23.6549 259.996 23.6549C248.866 23.6549 241.726 31.7049 241.726 42.4849C241.726 52.9849 248.586 61.4549 259.576 61.4549C266.156 61.4549 271.266 58.3049 273.296 53.3349V57.1849C273.296 59.7749 275.326 61.1749 277.356 61.1749C279.386 61.1749 281.346 59.7749 281.346 57.1849V28.1349C281.346 25.4749 279.316 24.1449 277.356 24.1449ZM261.606 54.2449C254.746 54.2449 249.846 49.4149 249.846 42.5549C249.846 35.7649 254.746 30.9349 261.606 30.9349C268.396 30.9349 273.226 35.9749 273.226 42.5549C273.226 49.2049 268.396 54.2449 261.606 54.2449ZM311.391 23.7249C304.881 23.7249 299.771 26.8049 297.671 31.8449V28.0649C297.671 25.4049 295.711 24.0749 293.681 24.0749C291.721 24.0749 289.691 25.4049 289.691 28.0649V73.4949C289.691 76.0849 291.721 77.4849 293.681 77.4849C295.711 77.4849 297.671 76.0849 297.671 73.4949V54.1749C300.401 58.8649 305.581 61.5249 310.971 61.5249C322.171 61.5249 329.241 53.4049 329.241 42.6949C329.241 32.2649 322.451 23.7249 311.391 23.7249ZM309.361 54.2449C302.571 54.2449 297.741 49.2049 297.741 42.6249C297.741 35.9749 302.571 30.9349 309.361 30.9349C316.221 30.9349 321.191 35.7649 321.191 42.6249C321.191 49.4149 316.221 54.2449 309.361 54.2449Z" fill="white"/>
<circle cx="68.5" cy="43.2549" r="8.5" fill="url(#paint0_linear_1_10)"/>
<circle cx="105.5" cy="43.2549" r="8.5" fill="url(#paint1_linear_1_10)"/>
<defs>
<linearGradient id="paint0_linear_1_10" x1="58.81" y1="37.3899" x2="74.195" y2="51.0749" gradientUnits="userSpaceOnUse">
<stop stop-color="#FDD01B"/>
<stop offset="1" stop-color="#EF2A24"/>
</linearGradient>
<linearGradient id="paint1_linear_1_10" x1="95.81" y1="37.3899" x2="111.195" y2="51.0749" gradientUnits="userSpaceOnUse">
<stop stop-color="#FDD01B"/>
<stop offset="1" stop-color="#EF2A24"/>
</linearGradient>
</defs>
</svg>
