<svg width="100" height="100" viewBox="0 0 100 100" fill="none" xmlns="http://www.w3.org/2000/svg">
<circle cx="50" cy="50" r="50" fill="url(#paint0_linear_19_16)"/>
<path d="M66.3323 35.5779C65.7838 35.0405 65.0042 34.8614 64.2977 35.1104L34.32 45.6784C33.503 45.9664 32.949 46.7464 32.9086 47.6652C32.8682 48.5841 33.3513 49.4163 34.1394 49.7851L41.5531 53.254C41.5892 53.4334 43.7175 63.9897 43.7899 64.3486C43.8828 64.8094 44.1015 65.22 44.5649 65.3462C45.0336 65.4739 45.3648 65.2 45.7145 64.92C45.9091 64.7641 51.2161 60.5144 51.2161 60.5144L57.6479 66.143C58.0225 66.471 58.4804 66.642 58.9472 66.642C59.1695 66.642 59.3939 66.6032 59.6122 66.524C60.2891 66.2786 60.7909 65.6877 60.9546 64.9436L66.9453 37.7046C67.1156 36.9302 66.8808 36.1154 66.3323 35.5779ZM46.1937 55.2417C46.1901 55.251 46.1865 55.2615 46.1831 55.274L44.9429 59.9077L43.5589 53.0431L53.0757 47.3885L46.422 54.8286C46.3172 54.9458 46.2401 55.0876 46.1937 55.2417ZM46.5873 61.5458L47.1506 59.4411L47.6894 57.428L49.6199 59.1175L46.5873 61.5458ZM64.9961 37.2143L59.0054 64.4532C59.0024 64.4668 58.9984 64.4854 58.9691 64.496C58.9401 64.5066 58.926 64.4945 58.916 64.4857L51.8781 58.3267C51.8779 58.3265 51.8778 58.3263 51.8776 58.3262L48.6168 55.4725L59.0928 43.7582C59.4349 43.3756 59.4642 42.783 59.1617 42.3639C58.8591 41.9448 58.3156 41.8251 57.8829 42.0823L42.3709 51.2993L34.942 47.8232C34.9194 47.8126 34.9069 47.8067 34.9087 47.7658C34.9105 47.725 34.9235 47.7203 34.9469 47.7121L64.9245 37.1441C64.9391 37.1391 64.9554 37.1332 64.9795 37.1567C65.0036 37.1804 64.9996 37.1983 64.9961 37.2143Z" fill="white"/>
<path d="M38.7448 14.035C38.9618 14.035 39.1298 13.86 39.1298 13.65V9.723H39.8858C40.0748 9.723 40.2358 9.569 40.2358 9.373C40.2358 9.184 40.0748 9.03 39.8858 9.03H37.6108C37.4218 9.03 37.2608 9.184 37.2608 9.373C37.2608 9.569 37.4218 9.723 37.6108 9.723H38.3668V13.65C38.3668 13.86 38.5348 14.035 38.7448 14.035ZM43.0078 12.012C42.9238 10.906 42.3568 10.297 41.4818 10.297C40.5578 10.297 39.9558 11.067 39.9558 12.187C39.9558 13.328 40.5718 14.07 41.5378 14.07C42.0768 14.07 42.4968 13.79 42.7628 13.328C42.7978 13.265 42.8188 13.202 42.8188 13.139C42.8188 12.957 42.6648 12.824 42.5038 12.824C42.4058 12.824 42.3078 12.873 42.2378 12.999C42.0978 13.258 41.8808 13.447 41.5378 13.447C41.0548 13.447 40.7188 13.013 40.6978 12.397H42.6508C42.8818 12.397 43.0288 12.271 43.0078 12.012ZM41.4888 10.906C41.9508 10.906 42.2588 11.312 42.2938 11.914H40.6978C40.7188 11.305 41.0338 10.906 41.4888 10.906ZM43.5412 13.657C43.5412 13.902 43.7302 14.035 43.9192 14.035C44.1012 14.035 44.2902 13.902 44.2902 13.657V9.086C44.2902 8.841 44.1012 8.715 43.9192 8.715C43.7302 8.715 43.5412 8.841 43.5412 9.086V13.657ZM47.8818 12.012C47.7978 10.906 47.2308 10.297 46.3558 10.297C45.4318 10.297 44.8298 11.067 44.8298 12.187C44.8298 13.328 45.4458 14.07 46.4118 14.07C46.9508 14.07 47.3708 13.79 47.6368 13.328C47.6718 13.265 47.6928 13.202 47.6928 13.139C47.6928 12.957 47.5388 12.824 47.3778 12.824C47.2798 12.824 47.1818 12.873 47.1118 12.999C46.9718 13.258 46.7548 13.447 46.4118 13.447C45.9288 13.447 45.5928 13.013 45.5718 12.397H47.5248C47.7558 12.397 47.9028 12.271 47.8818 12.012ZM46.3628 10.906C46.8248 10.906 47.1328 11.312 47.1678 11.914H45.5718C45.5928 11.305 45.9078 10.906 46.3628 10.906ZM51.1179 10.339C50.9359 10.339 50.7399 10.465 50.7399 10.724V11.081C50.5439 10.619 50.1519 10.304 49.6899 10.304C48.7939 10.304 48.2479 11.039 48.2479 12.166C48.2479 13.293 48.7729 14.07 49.6409 14.07C50.1729 14.07 50.5579 13.755 50.7399 13.265V13.846C50.7399 14.637 50.3759 15.036 49.7179 15.036C49.2559 15.036 49.0529 14.847 48.8289 14.847C48.6399 14.847 48.5419 14.98 48.5419 15.127C48.5419 15.253 48.6119 15.386 48.7519 15.456C49.0459 15.603 49.4239 15.694 49.7879 15.694C50.7889 15.694 51.4889 15.078 51.4889 13.846V10.71C51.4889 10.465 51.3069 10.339 51.1179 10.339ZM49.8789 13.398C49.3539 13.398 49.0039 12.936 49.0039 12.187C49.0039 11.438 49.3539 10.976 49.8789 10.976C50.3899 10.976 50.7399 11.445 50.7399 12.187C50.7399 12.929 50.3899 13.398 49.8789 13.398ZM53.596 10.367C53.253 10.43 53.05 10.64 52.924 10.934V10.71C52.924 10.465 52.735 10.339 52.553 10.339C52.364 10.339 52.175 10.465 52.175 10.71V13.657C52.175 13.902 52.364 14.035 52.553 14.035C52.735 14.035 52.924 13.902 52.924 13.657V11.823C52.924 11.333 53.176 11.088 53.631 11.053C53.911 11.032 54.037 10.836 54.037 10.675C54.037 10.5 53.897 10.36 53.68 10.36C53.652 10.36 53.624 10.36 53.596 10.367ZM57.0242 10.346C56.8352 10.346 56.6462 10.472 56.6462 10.717V11.081C56.4502 10.619 56.0582 10.304 55.5962 10.304C54.7002 10.304 54.1542 11.039 54.1542 12.166C54.1542 13.293 54.6792 14.07 55.5472 14.07C56.0792 14.07 56.4642 13.755 56.6462 13.265V13.664C56.6462 13.909 56.8422 14.035 57.0242 14.035C57.2132 14.035 57.4022 13.902 57.4022 13.664V10.717C57.4022 10.472 57.2132 10.346 57.0242 10.346ZM55.7852 13.398C55.2602 13.398 54.9102 12.936 54.9102 12.187C54.9102 11.438 55.2602 10.976 55.7852 10.976C56.2962 10.976 56.6462 11.445 56.6462 12.187C56.6462 12.929 56.2962 13.398 55.7852 13.398ZM61.4901 10.304C61.0351 10.304 60.7061 10.514 60.5451 10.899C60.3911 10.486 60.0621 10.304 59.6841 10.304C59.2851 10.304 58.9911 10.493 58.8371 10.864V10.703C58.8371 10.465 58.6551 10.346 58.4731 10.346C58.2771 10.346 58.0881 10.472 58.0881 10.717V13.657C58.0881 13.902 58.2771 14.028 58.4661 14.028C58.6481 14.028 58.8371 13.902 58.8371 13.657V11.704C58.8441 11.214 59.0681 10.941 59.4111 10.941C59.6981 10.941 59.9431 11.13 59.9431 11.662V13.65C59.9431 13.902 60.1321 14.035 60.3211 14.035C60.5101 14.035 60.6991 13.902 60.6991 13.65V11.704C60.6991 11.214 60.9231 10.941 61.2661 10.941C61.5531 10.941 61.8051 11.13 61.8051 11.662V13.65C61.8051 13.902 61.9941 14.035 62.1761 14.035C62.3651 14.035 62.5541 13.902 62.5541 13.65V11.557C62.5541 10.682 62.0711 10.304 61.4901 10.304Z" fill="white"/>
<path d="M62.2552 86.965C62.0382 86.965 61.8702 87.14 61.8702 87.35L61.8702 91.277L61.1142 91.277C60.9252 91.277 60.7642 91.431 60.7642 91.627C60.7642 91.816 60.9252 91.97 61.1142 91.97L63.3892 91.97C63.5782 91.97 63.7392 91.816 63.7392 91.627C63.7392 91.431 63.5782 91.277 63.3892 91.277L62.6332 91.277L62.6332 87.35C62.6332 87.14 62.4652 86.965 62.2552 86.965ZM57.9922 88.988C58.0762 90.094 58.6432 90.703 59.5182 90.703C60.4422 90.703 61.0442 89.933 61.0442 88.813C61.0442 87.672 60.4282 86.93 59.4622 86.93C58.9232 86.93 58.5032 87.21 58.2372 87.672C58.2022 87.735 58.1812 87.798 58.1812 87.861C58.1812 88.043 58.3352 88.176 58.4962 88.176C58.5942 88.176 58.6922 88.127 58.7622 88.001C58.9022 87.742 59.1192 87.553 59.4622 87.553C59.9452 87.553 60.2812 87.987 60.3022 88.603L58.3492 88.603C58.1182 88.603 57.9712 88.729 57.9922 88.988ZM59.5112 90.094C59.0492 90.094 58.7412 89.688 58.7062 89.086L60.3022 89.086C60.2812 89.695 59.9662 90.094 59.5112 90.094ZM57.4588 87.343C57.4588 87.098 57.2698 86.965 57.0808 86.965C56.8988 86.965 56.7098 87.098 56.7098 87.343L56.7098 91.914C56.7098 92.159 56.8988 92.285 57.0808 92.285C57.2698 92.285 57.4588 92.159 57.4588 91.914L57.4588 87.343ZM53.1182 88.988C53.2022 90.094 53.7692 90.703 54.6442 90.703C55.5682 90.703 56.1702 89.933 56.1702 88.813C56.1702 87.672 55.5542 86.93 54.5882 86.93C54.0492 86.93 53.6292 87.21 53.3632 87.672C53.3282 87.735 53.3072 87.798 53.3072 87.861C53.3072 88.043 53.4612 88.176 53.6222 88.176C53.7202 88.176 53.8182 88.127 53.8882 88.001C54.0282 87.742 54.2452 87.553 54.5882 87.553C55.0712 87.553 55.4072 87.987 55.4282 88.603L53.4752 88.603C53.2442 88.603 53.0972 88.729 53.1182 88.988ZM54.6372 90.094C54.1752 90.094 53.8672 89.688 53.8322 89.086L55.4282 89.086C55.4072 89.695 55.0922 90.094 54.6372 90.094ZM49.8821 90.661C50.0641 90.661 50.2601 90.535 50.2601 90.276L50.2601 89.919C50.4561 90.381 50.8481 90.696 51.3101 90.696C52.2061 90.696 52.7521 89.961 52.7521 88.834C52.7521 87.707 52.2271 86.93 51.3591 86.93C50.8271 86.93 50.4421 87.245 50.2601 87.735L50.2601 87.154C50.2601 86.363 50.6241 85.964 51.2821 85.964C51.7441 85.964 51.9471 86.153 52.1711 86.153C52.3601 86.153 52.4581 86.02 52.4581 85.873C52.4581 85.747 52.3881 85.614 52.2481 85.544C51.9541 85.397 51.5761 85.306 51.2121 85.306C50.2111 85.306 49.5111 85.922 49.5111 87.154L49.5111 90.29C49.5111 90.535 49.6931 90.661 49.8821 90.661ZM51.1211 87.602C51.6461 87.602 51.9961 88.064 51.9961 88.813C51.9961 89.562 51.6461 90.024 51.1211 90.024C50.6101 90.024 50.2601 89.555 50.2601 88.813C50.2601 88.071 50.6101 87.602 51.1211 87.602ZM47.404 90.633C47.747 90.57 47.95 90.36 48.076 90.066L48.076 90.29C48.076 90.535 48.265 90.661 48.447 90.661C48.636 90.661 48.825 90.535 48.825 90.29L48.825 87.343C48.825 87.098 48.636 86.965 48.447 86.965C48.265 86.965 48.076 87.098 48.076 87.343L48.076 89.177C48.076 89.667 47.824 89.912 47.369 89.947C47.089 89.968 46.963 90.164 46.963 90.325C46.963 90.5 47.103 90.64 47.32 90.64C47.348 90.64 47.376 90.64 47.404 90.633ZM43.9758 90.654C44.1648 90.654 44.3538 90.528 44.3538 90.283L44.3538 89.919C44.5498 90.381 44.9418 90.696 45.4038 90.696C46.2998 90.696 46.8458 89.961 46.8458 88.834C46.8458 87.707 46.3208 86.93 45.4528 86.93C44.9208 86.93 44.5358 87.245 44.3538 87.735L44.3538 87.336C44.3538 87.091 44.1578 86.965 43.9758 86.965C43.7868 86.965 43.5978 87.098 43.5978 87.336L43.5978 90.283C43.5978 90.528 43.7868 90.654 43.9758 90.654ZM45.2148 87.602C45.7398 87.602 46.0898 88.064 46.0898 88.813C46.0898 89.562 45.7398 90.024 45.2148 90.024C44.7038 90.024 44.3538 89.555 44.3538 88.813C44.3538 88.071 44.7038 87.602 45.2148 87.602ZM39.5099 90.696C39.9649 90.696 40.2939 90.486 40.4549 90.101C40.6089 90.514 40.9379 90.696 41.3159 90.696C41.7149 90.696 42.0089 90.507 42.1629 90.136L42.1629 90.297C42.1629 90.535 42.3449 90.654 42.5269 90.654C42.7229 90.654 42.9119 90.528 42.9119 90.283L42.9119 87.343C42.9119 87.098 42.7229 86.972 42.5339 86.972C42.3519 86.972 42.1629 87.098 42.1629 87.343L42.1629 89.296C42.1559 89.786 41.9319 90.059 41.5889 90.059C41.3019 90.059 41.0569 89.87 41.0569 89.338L41.0569 87.35C41.0569 87.098 40.8679 86.965 40.6789 86.965C40.4899 86.965 40.3009 87.098 40.3009 87.35L40.3009 89.296C40.3009 89.786 40.0769 90.059 39.7339 90.059C39.4469 90.059 39.1949 89.87 39.1949 89.338L39.1949 87.35C39.1949 87.098 39.0059 86.965 38.8239 86.965C38.6349 86.965 38.4459 87.098 38.4459 87.35L38.4459 89.443C38.4459 90.318 38.9289 90.696 39.5099 90.696Z" fill="white"/>
<path d="M86.965 38.7448C86.965 38.9618 87.14 39.1298 87.35 39.1298L91.277 39.1298L91.277 39.8858C91.277 40.0748 91.431 40.2358 91.627 40.2358C91.816 40.2358 91.97 40.0748 91.97 39.8858L91.97 37.6108C91.97 37.4218 91.816 37.2608 91.627 37.2608C91.431 37.2608 91.277 37.4218 91.277 37.6108L91.277 38.3668L87.35 38.3668C87.14 38.3668 86.965 38.5348 86.965 38.7448ZM88.988 43.0078C90.094 42.9238 90.703 42.3568 90.703 41.4818C90.703 40.5578 89.933 39.9558 88.813 39.9558C87.672 39.9558 86.93 40.5718 86.93 41.5378C86.93 42.0768 87.21 42.4968 87.672 42.7628C87.735 42.7978 87.798 42.8188 87.861 42.8188C88.043 42.8188 88.176 42.6648 88.176 42.5038C88.176 42.4058 88.127 42.3078 88.001 42.2378C87.742 42.0978 87.553 41.8808 87.553 41.5378C87.553 41.0548 87.987 40.7188 88.603 40.6978L88.603 42.6508C88.603 42.8818 88.729 43.0288 88.988 43.0078ZM90.094 41.4888C90.094 41.9508 89.688 42.2588 89.086 42.2938L89.086 40.6978C89.695 40.7188 90.094 41.0338 90.094 41.4888ZM87.343 43.5412C87.098 43.5412 86.965 43.7302 86.965 43.9192C86.965 44.1012 87.098 44.2902 87.343 44.2902L91.914 44.2902C92.159 44.2902 92.285 44.1012 92.285 43.9192C92.285 43.7302 92.159 43.5412 91.914 43.5412L87.343 43.5412ZM88.988 47.8818C90.094 47.7978 90.703 47.2308 90.703 46.3558C90.703 45.4318 89.933 44.8298 88.813 44.8298C87.672 44.8298 86.93 45.4458 86.93 46.4118C86.93 46.9508 87.21 47.3708 87.672 47.6368C87.735 47.6718 87.798 47.6928 87.861 47.6928C88.043 47.6928 88.176 47.5388 88.176 47.3778C88.176 47.2798 88.127 47.1818 88.001 47.1118C87.742 46.9718 87.553 46.7548 87.553 46.4118C87.553 45.9288 87.987 45.5928 88.603 45.5718L88.603 47.5248C88.603 47.7558 88.729 47.9028 88.988 47.8818ZM90.094 46.3628C90.094 46.8248 89.688 47.1328 89.086 47.1678L89.086 45.5718C89.695 45.5928 90.094 45.9078 90.094 46.3628ZM90.661 51.1179C90.661 50.9359 90.535 50.7399 90.276 50.7399L89.919 50.7399C90.381 50.5439 90.696 50.1519 90.696 49.6899C90.696 48.7939 89.961 48.2479 88.834 48.2479C87.707 48.2479 86.93 48.7729 86.93 49.6409C86.93 50.1729 87.245 50.5579 87.735 50.7399L87.154 50.7399C86.363 50.7399 85.964 50.3759 85.964 49.7179C85.964 49.2559 86.153 49.0529 86.153 48.8289C86.153 48.6399 86.02 48.5419 85.873 48.5419C85.747 48.5419 85.614 48.6119 85.544 48.7519C85.397 49.0459 85.306 49.4239 85.306 49.7879C85.306 50.7889 85.922 51.4889 87.154 51.4889L90.29 51.4889C90.535 51.4889 90.661 51.3069 90.661 51.1179ZM87.602 49.8789C87.602 49.3539 88.064 49.0039 88.813 49.0039C89.562 49.0039 90.024 49.3539 90.024 49.8789C90.024 50.3899 89.555 50.7399 88.813 50.7399C88.071 50.7399 87.602 50.3899 87.602 49.8789ZM90.633 53.596C90.57 53.253 90.36 53.05 90.066 52.924L90.29 52.924C90.535 52.924 90.661 52.735 90.661 52.553C90.661 52.364 90.535 52.175 90.29 52.175L87.343 52.175C87.098 52.175 86.965 52.364 86.965 52.553C86.965 52.735 87.098 52.924 87.343 52.924L89.177 52.924C89.667 52.924 89.912 53.176 89.947 53.631C89.968 53.911 90.164 54.037 90.325 54.037C90.5 54.037 90.64 53.897 90.64 53.68C90.64 53.652 90.64 53.624 90.633 53.596ZM90.654 57.0242C90.654 56.8352 90.528 56.6462 90.283 56.6462L89.919 56.6462C90.381 56.4502 90.696 56.0582 90.696 55.5962C90.696 54.7002 89.961 54.1542 88.834 54.1542C87.707 54.1542 86.93 54.6792 86.93 55.5472C86.93 56.0792 87.245 56.4642 87.735 56.6462L87.336 56.6462C87.091 56.6462 86.965 56.8422 86.965 57.0242C86.965 57.2132 87.098 57.4022 87.336 57.4022L90.283 57.4022C90.528 57.4022 90.654 57.2132 90.654 57.0242ZM87.602 55.7852C87.602 55.2602 88.064 54.9102 88.813 54.9102C89.562 54.9102 90.024 55.2602 90.024 55.7852C90.024 56.2962 89.555 56.6462 88.813 56.6462C88.071 56.6462 87.602 56.2962 87.602 55.7852ZM90.696 61.4901C90.696 61.0351 90.486 60.7061 90.101 60.5451C90.514 60.3911 90.696 60.0621 90.696 59.6841C90.696 59.2851 90.507 58.9911 90.136 58.8371L90.297 58.8371C90.535 58.8371 90.654 58.6551 90.654 58.4731C90.654 58.2771 90.528 58.0881 90.283 58.0881L87.343 58.0881C87.098 58.0881 86.972 58.2771 86.972 58.4661C86.972 58.6481 87.098 58.8371 87.343 58.8371L89.296 58.8371C89.786 58.8441 90.059 59.0681 90.059 59.4111C90.059 59.6981 89.87 59.9431 89.338 59.9431L87.35 59.9431C87.098 59.9431 86.965 60.1321 86.965 60.3211C86.965 60.5101 87.098 60.6991 87.35 60.6991L89.296 60.6991C89.786 60.6991 90.059 60.9231 90.059 61.2661C90.059 61.5531 89.87 61.8051 89.338 61.8051L87.35 61.8051C87.098 61.8051 86.965 61.9941 86.965 62.1761C86.965 62.3651 87.098 62.5541 87.35 62.5541L89.443 62.5541C90.318 62.5541 90.696 62.0711 90.696 61.4901Z" fill="white"/>
<path d="M14.035 62.2552C14.035 62.0382 13.86 61.8702 13.65 61.8702L9.723 61.8702L9.723 61.1142C9.723 60.9252 9.569 60.7642 9.373 60.7642C9.184 60.7642 9.03 60.9252 9.03 61.1142L9.03 63.3892C9.03 63.5782 9.184 63.7392 9.373 63.7392C9.569 63.7392 9.723 63.5782 9.723 63.3892L9.723 62.6332L13.65 62.6332C13.86 62.6332 14.035 62.4652 14.035 62.2552ZM12.012 57.9922C10.906 58.0762 10.297 58.6432 10.297 59.5182C10.297 60.4422 11.067 61.0442 12.187 61.0442C13.328 61.0442 14.07 60.4282 14.07 59.4622C14.07 58.9232 13.79 58.5032 13.328 58.2372C13.265 58.2022 13.202 58.1812 13.139 58.1812C12.957 58.1812 12.824 58.3352 12.824 58.4962C12.824 58.5942 12.873 58.6922 12.999 58.7622C13.258 58.9022 13.447 59.1192 13.447 59.4622C13.447 59.9452 13.013 60.2812 12.397 60.3022L12.397 58.3492C12.397 58.1182 12.271 57.9712 12.012 57.9922ZM10.906 59.5112C10.906 59.0492 11.312 58.7412 11.914 58.7062L11.914 60.3022C11.305 60.2812 10.906 59.9662 10.906 59.5112ZM13.657 57.4588C13.902 57.4588 14.035 57.2698 14.035 57.0808C14.035 56.8988 13.902 56.7098 13.657 56.7098L9.086 56.7098C8.841 56.7098 8.715 56.8988 8.715 57.0808C8.715 57.2698 8.841 57.4588 9.086 57.4588L13.657 57.4588ZM12.012 53.1182C10.906 53.2022 10.297 53.7692 10.297 54.6442C10.297 55.5682 11.067 56.1702 12.187 56.1702C13.328 56.1702 14.07 55.5542 14.07 54.5882C14.07 54.0492 13.79 53.6292 13.328 53.3632C13.265 53.3282 13.202 53.3072 13.139 53.3072C12.957 53.3072 12.824 53.4612 12.824 53.6222C12.824 53.7202 12.873 53.8182 12.999 53.8882C13.258 54.0282 13.447 54.2452 13.447 54.5882C13.447 55.0712 13.013 55.4072 12.397 55.4282L12.397 53.4752C12.397 53.2442 12.271 53.0972 12.012 53.1182ZM10.906 54.6372C10.906 54.1752 11.312 53.8672 11.914 53.8322L11.914 55.4282C11.305 55.4072 10.906 55.0922 10.906 54.6372ZM10.339 49.8821C10.339 50.0641 10.465 50.2601 10.724 50.2601L11.081 50.2601C10.619 50.4561 10.304 50.8481 10.304 51.3101C10.304 52.2061 11.039 52.7521 12.166 52.7521C13.293 52.7521 14.07 52.2271 14.07 51.3591C14.07 50.8271 13.755 50.4421 13.265 50.2601L13.846 50.2601C14.637 50.2601 15.036 50.6241 15.036 51.2821C15.036 51.7441 14.847 51.9471 14.847 52.1711C14.847 52.3601 14.98 52.4581 15.127 52.4581C15.253 52.4581 15.386 52.3881 15.456 52.2481C15.603 51.9541 15.694 51.5761 15.694 51.2121C15.694 50.2111 15.078 49.5111 13.846 49.5111L10.71 49.5111C10.465 49.5111 10.339 49.6931 10.339 49.8821ZM13.398 51.1211C13.398 51.6461 12.936 51.9961 12.187 51.9961C11.438 51.9961 10.976 51.6461 10.976 51.1211C10.976 50.6101 11.445 50.2601 12.187 50.2601C12.929 50.2601 13.398 50.6101 13.398 51.1211ZM10.367 47.404C10.43 47.747 10.64 47.95 10.934 48.076L10.71 48.076C10.465 48.076 10.339 48.265 10.339 48.447C10.339 48.636 10.465 48.825 10.71 48.825L13.657 48.825C13.902 48.825 14.035 48.636 14.035 48.447C14.035 48.265 13.902 48.076 13.657 48.076L11.823 48.076C11.333 48.076 11.088 47.824 11.053 47.369C11.032 47.089 10.836 46.963 10.675 46.963C10.5 46.963 10.36 47.103 10.36 47.32C10.36 47.348 10.36 47.376 10.367 47.404ZM10.346 43.9758C10.346 44.1648 10.472 44.3538 10.717 44.3538L11.081 44.3538C10.619 44.5498 10.304 44.9418 10.304 45.4038C10.304 46.2998 11.039 46.8458 12.166 46.8458C13.293 46.8458 14.07 46.3208 14.07 45.4528C14.07 44.9208 13.755 44.5358 13.265 44.3538L13.664 44.3538C13.909 44.3538 14.035 44.1578 14.035 43.9758C14.035 43.7868 13.902 43.5978 13.664 43.5978L10.717 43.5978C10.472 43.5978 10.346 43.7868 10.346 43.9758ZM13.398 45.2148C13.398 45.7398 12.936 46.0898 12.187 46.0898C11.438 46.0898 10.976 45.7398 10.976 45.2148C10.976 44.7038 11.445 44.3538 12.187 44.3538C12.929 44.3538 13.398 44.7038 13.398 45.2148ZM10.304 39.5099C10.304 39.9649 10.514 40.2939 10.899 40.4549C10.486 40.6089 10.304 40.9379 10.304 41.3159C10.304 41.7149 10.493 42.0089 10.864 42.1629L10.703 42.1629C10.465 42.1629 10.346 42.3449 10.346 42.5269C10.346 42.7229 10.472 42.9119 10.717 42.9119L13.657 42.9119C13.902 42.9119 14.028 42.7229 14.028 42.5339C14.028 42.3519 13.902 42.1629 13.657 42.1629L11.704 42.1629C11.214 42.1559 10.941 41.9319 10.941 41.5889C10.941 41.3019 11.13 41.0569 11.662 41.0569L13.65 41.0569C13.902 41.0569 14.035 40.8679 14.035 40.6789C14.035 40.4899 13.902 40.3009 13.65 40.3009L11.704 40.3009C11.214 40.3009 10.941 40.0769 10.941 39.7339C10.941 39.4469 11.13 39.1949 11.662 39.1949L13.65 39.1949C13.902 39.1949 14.035 39.0059 14.035 38.8239C14.035 38.6349 13.902 38.4459 13.65 38.4459L11.557 38.4459C10.682 38.4459 10.304 38.9289 10.304 39.5099Z" fill="white"/>
<path d="M67.9724 16.4031C68.1259 16.5565 68.3684 16.5516 68.5169 16.4031L71.2937 13.6263L71.8283 14.1609C71.9619 14.2945 72.1847 14.2995 72.3233 14.1609C72.4569 14.0272 72.452 13.8045 72.3183 13.6708L70.7097 12.0622C70.576 11.9285 70.3533 11.9236 70.2196 12.0572C70.081 12.1958 70.086 12.4186 70.2196 12.5522L70.7542 13.0868L67.9774 15.8636C67.8289 16.0121 67.824 16.2546 67.9724 16.4031ZM72.4173 17.987C73.14 17.1456 73.1697 16.314 72.551 15.6953C71.8976 15.0419 70.9274 15.1607 70.1355 15.9527C69.3287 16.7595 69.2396 17.7197 69.9227 18.4028C70.3038 18.7839 70.7988 18.8829 71.3135 18.7443C71.3828 18.7245 71.4422 18.6948 71.4868 18.6503C71.6155 18.5216 71.6006 18.3187 71.4868 18.2048C71.4175 18.1355 71.3135 18.1009 71.1749 18.1405C70.8928 18.2246 70.6057 18.2048 70.3632 17.9623C70.0216 17.6207 70.0909 17.0763 70.5117 16.6258L71.8926 18.0068C72.056 18.1702 72.249 18.185 72.4173 17.987ZM72.1253 16.1309C72.452 16.4575 72.3827 16.9624 71.9817 17.4129L70.8532 16.2843C71.2987 15.8685 71.8036 15.8091 72.1253 16.1309ZM71.6314 19.5274C71.4581 19.7007 71.4977 19.9284 71.6314 20.062C71.7601 20.1907 71.9877 20.2303 72.161 20.0571L75.3932 16.8249C75.5664 16.6516 75.5219 16.4289 75.3932 16.3002C75.2595 16.1666 75.0368 16.122 74.8635 16.2953L71.6314 19.5274ZM75.8638 21.4335C76.5864 20.592 76.6161 19.7605 75.9974 19.1417C75.3441 18.4884 74.3739 18.6072 73.5819 19.3991C72.7751 20.2059 72.686 21.1662 73.3691 21.8493C73.7502 22.2304 74.2452 22.3294 74.76 22.1908C74.8293 22.171 74.8887 22.1413 74.9332 22.0967C75.0619 21.968 75.0471 21.7651 74.9332 21.6513C74.8639 21.582 74.76 21.5473 74.6214 21.5869C74.3393 21.6711 74.0522 21.6513 73.8096 21.4087C73.4681 21.0672 73.5374 20.5227 73.9581 20.0723L75.3391 21.4533C75.5024 21.6166 75.6955 21.6315 75.8638 21.4335ZM75.5717 19.5773C75.8984 19.904 75.8291 20.4089 75.4282 20.8593L74.2997 19.7308C74.7451 19.315 75.25 19.2556 75.5717 19.5773ZM79.3351 22.5388C79.2064 22.4101 78.9787 22.3606 78.7955 22.5437L78.5431 22.7962C78.7312 22.3309 78.6767 21.831 78.3501 21.5043C77.7165 20.8707 76.8107 21.0044 76.0138 21.8013C75.2169 22.5982 75.0387 23.5188 75.6524 24.1326C76.0286 24.5088 76.5236 24.5583 76.9988 24.3405L76.5879 24.7513C76.0286 25.3106 75.4891 25.3354 75.0238 24.8701C74.6971 24.5434 74.6872 24.2662 74.5289 24.1078C74.3952 23.9742 74.2319 23.999 74.1279 24.1029C74.0388 24.192 73.9943 24.3355 74.0438 24.484C74.1477 24.7959 74.3507 25.1275 74.6081 25.3849C75.3159 26.0927 76.2464 26.1521 77.1176 25.2809L79.3351 23.0635C79.5083 22.8902 79.4687 22.6724 79.3351 22.5388ZM76.2959 23.8257C75.9247 23.4545 76.0039 22.8803 76.5335 22.3507C77.0631 21.8211 77.6373 21.7419 78.0085 22.1131C78.3699 22.4744 78.2857 23.0536 77.761 23.5782C77.2364 24.1029 76.6572 24.187 76.2959 23.8257ZM81.0675 24.3109C80.7805 24.1129 80.4884 24.1178 80.1914 24.2366L80.3498 24.0782C80.5231 23.905 80.4785 23.6822 80.3498 23.5536C80.2162 23.4199 79.9935 23.3754 79.8202 23.5486L77.7364 25.6324C77.5631 25.8057 77.6027 26.0334 77.7364 26.167C77.8651 26.2957 78.0927 26.3353 78.266 26.1621L79.5628 24.8652C79.9093 24.5188 80.2607 24.5237 80.6072 24.8207C80.8201 25.0038 81.0477 24.9543 81.1616 24.8405C81.2853 24.7167 81.2853 24.5188 81.1319 24.3653C81.1121 24.3455 81.0923 24.3257 81.0675 24.3109ZM83.5065 26.7201C83.3728 26.5864 83.1501 26.5419 82.9768 26.7151L82.7194 26.9725C82.9075 26.5072 82.8531 26.0073 82.5264 25.6806C81.8928 25.0471 80.987 25.1807 80.1901 25.9776C79.3932 26.7745 79.215 27.6952 79.8288 28.3089C80.205 28.6851 80.7 28.7346 81.1751 28.5168L80.893 28.799C80.7198 28.9722 80.7692 29.1999 80.8979 29.3286C81.0316 29.4622 81.2593 29.5018 81.4276 29.3335L83.5114 27.2497C83.6846 27.0765 83.6401 26.8537 83.5065 26.7201ZM80.4723 28.0021C80.101 27.6308 80.1802 27.0567 80.7099 26.527C81.2395 25.9974 81.8136 25.9182 82.1849 26.2894C82.5462 26.6508 82.4621 27.2299 81.9374 27.7546C81.4127 28.2792 80.8336 28.3634 80.4723 28.0021ZM86.6941 29.8483C86.3723 29.5265 85.9912 29.4424 85.6051 29.6008C85.7883 29.1999 85.6843 28.8385 85.417 28.5712C85.1349 28.2891 84.7934 28.2149 84.4221 28.3683L84.536 28.2545C84.7043 28.0862 84.6597 27.8733 84.531 27.7446C84.3924 27.606 84.1697 27.5615 83.9964 27.7347L81.9176 29.8136C81.7443 29.9869 81.7889 30.2096 81.9225 30.3433C82.0512 30.4719 82.2739 30.5165 82.4472 30.3433L83.8282 28.9623C84.1796 28.6207 84.531 28.5861 84.7736 28.8286C84.9765 29.0316 85.0161 29.3385 84.6399 29.7146L83.2342 31.1204C83.056 31.2986 83.0956 31.5262 83.2292 31.6599C83.3629 31.7935 83.5906 31.8331 83.7688 31.6549L85.1448 30.2789C85.4913 29.9324 85.8427 29.8978 86.0852 30.1403C86.2882 30.3433 86.3327 30.6551 85.9565 31.0313L84.5508 32.437C84.3726 32.6152 84.4122 32.8429 84.5409 32.9716C84.6746 33.1052 84.9022 33.1448 85.0804 32.9666L86.5604 31.4866C87.1791 30.8679 87.1049 30.2591 86.6941 29.8483Z" fill="white"/>
<path d="M33.0275 84.597C32.8741 84.4435 32.6316 84.4485 32.4831 84.597L29.7063 87.3738L29.1717 86.8392C29.0381 86.7056 28.8153 86.7006 28.6767 86.8392C28.5431 86.9728 28.548 87.1956 28.6817 87.3292L30.2903 88.9379C30.424 89.0715 30.6467 89.0765 30.7804 88.9428C30.919 88.8042 30.914 88.5815 30.7804 88.4479L30.2458 87.9133L33.0226 85.1365C33.1711 84.988 33.176 84.7455 33.0275 84.597ZM28.5827 83.013C27.86 83.8545 27.8303 84.6861 28.449 85.3048C29.1024 85.9581 30.0726 85.8393 30.8645 85.0474C31.6713 84.2406 31.7604 83.2803 31.0773 82.5973C30.6962 82.2161 30.2012 82.1171 29.6865 82.2557C29.6172 82.2755 29.5578 82.3052 29.5132 82.3498C29.3845 82.4785 29.3994 82.6814 29.5132 82.7953C29.5825 82.8645 29.6865 82.8992 29.8251 82.8596C30.1072 82.7755 30.3943 82.7953 30.6368 83.0378C30.9784 83.3793 30.9091 83.9238 30.4883 84.3742L29.1073 82.9932C28.944 82.8299 28.751 82.815 28.5827 83.013ZM28.8747 84.8692C28.548 84.5425 28.6173 84.0376 29.0183 83.5872L30.1468 84.7158C29.7013 85.1315 29.1964 85.1909 28.8747 84.8692ZM29.3686 81.4726C29.5419 81.2994 29.5023 81.0717 29.3686 80.9381C29.2399 80.8094 29.0123 80.7698 28.839 80.943L25.6068 84.1752C25.4336 84.3484 25.4781 84.5712 25.6068 84.6999C25.7405 84.8335 25.9632 84.8781 26.1365 84.7048L29.3686 81.4726ZM25.1362 79.5666C24.4136 80.408 24.3839 81.2396 25.0026 81.8583C25.6559 82.5117 26.6261 82.3929 27.4181 81.6009C28.2249 80.7941 28.314 79.8339 27.6309 79.1508C27.2498 78.7697 26.7548 78.6707 26.24 78.8093C26.1707 78.8291 26.1113 78.8588 26.0668 78.9033C25.9381 79.032 25.9529 79.235 26.0668 79.3488C26.1361 79.4181 26.24 79.4527 26.3786 79.4131C26.6607 79.329 26.9478 79.3488 27.1904 79.5913C27.5319 79.9329 27.4626 80.4773 27.0419 80.9278L25.6609 79.5468C25.4976 79.3834 25.3045 79.3686 25.1362 79.5666ZM25.4283 81.4227C25.1016 81.0961 25.1709 80.5912 25.5718 80.1408L26.7003 81.2693C26.2549 81.6851 25.75 81.7445 25.4283 81.4227ZM21.6649 78.4613C21.7936 78.59 22.0213 78.6395 22.2045 78.4563L22.4569 78.2039C22.2688 78.6692 22.3233 79.1691 22.6499 79.4958C23.2835 80.1293 24.1893 79.9957 24.9862 79.1988C25.7831 78.4019 25.9613 77.4812 25.3476 76.8675C24.9714 76.4913 24.4764 76.4418 24.0012 76.6596L24.412 76.2487C24.9714 75.6894 25.5109 75.6647 25.9762 76.13C26.3029 76.4566 26.3128 76.7338 26.4711 76.8922C26.6048 77.0259 26.7681 77.0011 26.8721 76.8972C26.9612 76.8081 27.0057 76.6645 26.9562 76.516C26.8523 76.2042 26.6493 75.8726 26.3919 75.6152C25.6841 74.9074 24.7536 74.848 23.8824 75.7191L21.6649 77.9366C21.4917 78.1099 21.5313 78.3276 21.6649 78.4613ZM24.7041 77.1743C25.0753 77.5456 24.9961 78.1198 24.4665 78.6494C23.9369 79.179 23.3627 79.2582 22.9915 78.887C22.6301 78.5256 22.7143 77.9465 23.239 77.4218C23.7636 76.8972 24.3428 76.813 24.7041 77.1743ZM19.9325 76.6892C20.2195 76.8872 20.5116 76.8822 20.8086 76.7634L20.6502 76.9218C20.4769 77.0951 20.5215 77.3178 20.6502 77.4465C20.7838 77.5802 21.0065 77.6247 21.1798 77.4515L23.2636 75.3676C23.4369 75.1944 23.3973 74.9667 23.2636 74.833C23.1349 74.7043 22.9072 74.6647 22.734 74.838L21.4372 76.1348C21.0907 76.4813 20.7393 76.4764 20.3928 76.1794C20.1799 75.9962 19.9522 76.0457 19.8384 76.1596C19.7147 76.2833 19.7147 76.4813 19.8681 76.6347C19.8879 76.6545 19.9077 76.6743 19.9325 76.6892ZM17.4935 74.28C17.6272 74.4136 17.8499 74.4582 18.0232 74.2849L18.2805 74.0275C18.0925 74.4928 18.1469 74.9927 18.4736 75.3194C19.1072 75.953 20.013 75.8194 20.8099 75.0224C21.6068 74.2255 21.785 73.3049 21.1712 72.6911C20.795 72.3149 20.3 72.2654 19.8249 72.4832L20.107 72.2011C20.2802 72.0278 20.2308 71.8002 20.1021 71.6715C19.9684 71.5378 19.7407 71.4982 19.5724 71.6665L17.4886 73.7504C17.3153 73.9236 17.3599 74.1463 17.4935 74.28ZM20.5277 72.998C20.899 73.3692 20.8198 73.9434 20.2901 74.473C19.7605 75.0026 19.1864 75.0818 18.8151 74.7106C18.4538 74.3493 18.5379 73.7702 19.0626 73.2455C19.5873 72.7208 20.1664 72.6367 20.5277 72.998ZM14.3059 71.1518C14.6277 71.4735 15.0088 71.5577 15.3949 71.3993C15.2117 71.8002 15.3157 72.1615 15.583 72.4288C15.8651 72.711 16.2066 72.7852 16.5779 72.6318L16.464 72.7456C16.2957 72.9139 16.3403 73.1267 16.469 73.2554C16.6076 73.394 16.8303 73.4386 17.0036 73.2653L19.0824 71.1864C19.2557 71.0132 19.2111 70.7905 19.0775 70.6568C18.9488 70.5281 18.7261 70.4836 18.5528 70.6568L17.1718 72.0378C16.8204 72.3793 16.469 72.414 16.2264 72.1714C16.0235 71.9685 15.9839 71.6616 16.3601 71.2854L17.7658 69.8797C17.944 69.7015 17.9044 69.4738 17.7708 69.3402C17.6371 69.2065 17.4094 69.1669 17.2312 69.3451L15.8552 70.7212C15.5087 71.0676 15.1573 71.1023 14.9148 70.8597C14.7118 70.6568 14.6673 70.345 15.0435 69.9688L16.4492 68.5631C16.6274 68.3849 16.5878 68.1572 16.4591 68.0285C16.3254 67.8948 16.0977 67.8553 15.9196 68.0334L14.4396 69.5134C13.8209 70.1321 13.8951 70.741 14.3059 71.1518Z" fill="white"/>
<path d="M84.5968 67.9724C84.4433 68.1258 84.4483 68.3684 84.5968 68.5169L87.3736 71.2937L86.839 71.8282C86.7054 71.9619 86.7004 72.1846 86.839 72.3232C86.9727 72.4569 87.1954 72.4519 87.329 72.3183L88.9377 70.7096C89.0713 70.576 89.0763 70.3532 88.9427 70.2196C88.8041 70.081 88.5813 70.0859 88.4477 70.2196L87.9131 70.7541L85.1363 67.9773C84.9878 67.8288 84.7453 67.8239 84.5968 67.9724ZM83.0129 72.4173C83.8543 73.1399 84.6859 73.1696 85.3046 72.5509C85.958 71.8975 85.8392 70.9274 85.0472 70.1354C84.2404 69.3286 83.2801 69.2395 82.5971 69.9226C82.2159 70.3037 82.117 70.7987 82.2555 71.3135C82.2753 71.3828 82.305 71.4422 82.3496 71.4867C82.4783 71.6154 82.6812 71.6006 82.7951 71.4867C82.8644 71.4174 82.899 71.3135 82.8594 71.1749C82.7753 70.8927 82.7951 70.6057 83.0376 70.3631C83.3791 70.0216 83.9236 70.0909 84.374 70.5116L82.9931 71.8926C82.8297 72.0559 82.8149 72.249 83.0129 72.4173ZM84.869 72.1252C84.5423 72.4519 84.0375 72.3826 83.587 71.9817L84.7156 70.8531C85.1313 71.2986 85.1907 71.8035 84.869 72.1252ZM81.4724 71.6313C81.2992 71.4581 81.0715 71.4977 80.9379 71.6313C80.8092 71.76 80.7696 71.9877 80.9428 72.1609L84.175 75.3931C84.3482 75.5663 84.571 75.5218 84.6997 75.3931C84.8333 75.2595 84.8779 75.0367 84.7046 74.8635L81.4724 71.6313ZM79.5664 75.8637C80.4079 76.5864 81.2394 76.6161 81.8581 75.9974C82.5115 75.344 82.3927 74.3738 81.6007 73.5819C80.7939 72.7751 79.8337 72.686 79.1506 73.369C78.7695 73.7502 78.6705 74.2451 78.8091 74.7599C78.8289 74.8292 78.8586 74.8886 78.9031 74.9332C79.0318 75.0619 79.2348 75.047 79.3486 74.9332C79.4179 74.8639 79.4526 74.7599 79.413 74.6213C79.3288 74.3392 79.3486 74.0521 79.5911 73.8096C79.9327 73.468 80.4772 73.5373 80.9276 73.9581L79.5466 75.339C79.3833 75.5024 79.3684 75.6954 79.5664 75.8637ZM81.4226 75.5717C81.0959 75.8984 80.591 75.8291 80.1406 75.4281L81.2691 74.2996C81.6849 74.7451 81.7443 75.2499 81.4226 75.5717ZM78.4611 79.335C78.5898 79.2063 78.6393 78.9786 78.4561 78.7955L78.2037 78.543C78.669 78.7311 79.1689 78.6767 79.4956 78.35C80.1292 77.7164 79.9955 76.8106 79.1986 76.0137C78.4017 75.2168 77.481 75.0386 76.8673 75.6524C76.4911 76.0286 76.4416 76.5235 76.6594 76.9987L76.2486 76.5879C75.6892 76.0286 75.6645 75.489 76.1298 75.0238C76.4565 74.6971 76.7336 74.6872 76.892 74.5288C77.0257 74.3951 77.0009 74.2318 76.897 74.1279C76.8079 74.0388 76.6643 73.9942 76.5158 74.0437C76.204 74.1477 75.8724 74.3506 75.615 74.608C74.9072 75.3158 74.8478 76.2464 75.7189 77.1175L77.9364 79.335C78.1097 79.5082 78.3275 79.4686 78.4611 79.335ZM77.1742 76.2959C77.5454 75.9246 78.1196 76.0038 78.6492 76.5334C79.1788 77.0631 79.258 77.6372 78.8868 78.0085C78.5254 78.3698 77.9463 78.2857 77.4217 77.761C76.897 77.2363 76.8128 76.6572 77.1742 76.2959ZM76.689 81.0675C76.887 80.7804 76.8821 80.4884 76.7633 80.1914L76.9217 80.3498C77.0949 80.523 77.3176 80.4785 77.4463 80.3498C77.58 80.2161 77.6245 79.9934 77.4513 79.8201L75.3674 77.7363C75.1942 77.5631 74.9665 77.6027 74.8329 77.7363C74.7042 77.865 74.6646 78.0927 74.8378 78.2659L76.1346 79.5628C76.4811 79.9092 76.4762 80.2607 76.1792 80.6072C75.996 80.82 76.0455 81.0477 76.1594 81.1615C76.2831 81.2853 76.4811 81.2853 76.6346 81.1318C76.6544 81.112 76.6742 81.0922 76.689 81.0675ZM74.2798 83.5064C74.4134 83.3728 74.458 83.15 74.2847 82.9768L74.0274 82.7194C74.4926 82.9075 74.9926 82.853 75.3192 82.5263C75.9528 81.8928 75.8192 80.987 75.0223 80.1901C74.2254 79.3932 73.3047 79.215 72.6909 79.8287C72.3147 80.2049 72.2653 80.6999 72.483 81.1751L72.2009 80.8929C72.0277 80.7197 71.8 80.7692 71.6713 80.8979C71.5376 81.0315 71.498 81.2592 71.6663 81.4275L73.7502 83.5113C73.9234 83.6846 74.1462 83.64 74.2798 83.5064ZM72.9978 80.4722C73.369 80.101 73.9432 80.1802 74.4728 80.7098C75.0025 81.2394 75.0817 81.8136 74.7104 82.1848C74.3491 82.5461 73.77 82.462 73.2453 81.9373C72.7206 81.4127 72.6365 80.8335 72.9978 80.4722ZM71.1516 86.694C71.4733 86.3723 71.5575 85.9911 71.3991 85.6051C71.8 85.7882 72.1613 85.6842 72.4286 85.417C72.7108 85.1348 72.785 84.7933 72.6316 84.4221L72.7454 84.5359C72.9137 84.7042 73.1265 84.6596 73.2552 84.531C73.3938 84.3924 73.4384 84.1696 73.2651 83.9964L71.1862 81.9175C71.013 81.7442 70.7903 81.7888 70.6566 81.9224C70.5279 82.0511 70.4834 82.2739 70.6566 82.4471L72.0376 83.8281C72.3791 84.1795 72.4138 84.531 72.1712 84.7735C71.9683 84.9764 71.6614 85.016 71.2852 84.6398L69.8795 83.2341C69.7013 83.0559 69.4736 83.0955 69.34 83.2292C69.2063 83.3628 69.1667 83.5905 69.3449 83.7687L70.721 85.1447C71.0675 85.4912 71.1021 85.8426 70.8596 86.0852C70.6566 86.2881 70.3448 86.3327 69.9686 85.9565L68.5629 84.5508C68.3847 84.3726 68.157 84.4122 68.0283 84.5409C67.8947 84.6745 67.8551 84.9022 68.0333 85.0804L69.5132 86.5604C70.1319 87.1791 70.7408 87.1048 71.1516 86.694Z" fill="white"/>
<path d="M16.4035 33.0276C16.5569 32.8742 16.552 32.6316 16.4035 32.4831L13.6267 29.7063L14.1612 29.1718C14.2949 29.0381 14.2998 28.8154 14.1612 28.6768C14.0276 28.5431 13.8049 28.5481 13.6712 28.6817L12.0625 30.2904C11.9289 30.424 11.9239 30.6468 12.0576 30.7804C12.1962 30.919 12.4189 30.9141 12.5526 30.7804L13.0871 30.2459L15.8639 33.0227C16.0124 33.1712 16.255 33.1761 16.4035 33.0276ZM17.9874 28.5827C17.1459 27.8601 16.3144 27.8304 15.6957 28.4491C15.0423 29.1025 15.1611 30.0726 15.953 30.8646C16.7599 31.6714 17.7201 31.7605 18.4032 31.0774C18.7843 30.6963 18.8833 30.2013 18.7447 29.6865C18.7249 29.6172 18.6952 29.5578 18.6507 29.5133C18.522 29.3846 18.319 29.3994 18.2052 29.5133C18.1359 29.5826 18.1012 29.6865 18.1408 29.8251C18.225 30.1073 18.2052 30.3943 17.9626 30.6369C17.6211 30.9784 17.0766 30.9091 16.6262 30.4884L18.0072 29.1074C18.1705 28.9441 18.1854 28.751 17.9874 28.5827ZM16.1312 28.8748C16.4579 28.5481 16.9628 28.6174 17.4132 29.0183L16.2847 30.1469C15.8689 29.7014 15.8095 29.1965 16.1312 28.8748ZM19.5278 29.3687C19.701 29.5419 19.9287 29.5023 20.0624 29.3687C20.1911 29.24 20.2307 29.0123 20.0574 28.8391L16.8252 25.6069C16.652 25.4337 16.4293 25.4782 16.3006 25.6069C16.1669 25.7405 16.1224 25.9633 16.2956 26.1365L19.5278 29.3687ZM21.4338 25.1363C20.5924 24.4136 19.7608 24.3839 19.1421 25.0026C18.4887 25.656 18.6075 26.6262 19.3995 27.4181C20.2063 28.2249 21.1666 28.314 21.8496 27.631C22.2308 27.2498 22.3297 26.7549 22.1912 26.2401C22.1714 26.1708 22.1417 26.1114 22.0971 26.0668C21.9684 25.9381 21.7655 25.953 21.6516 26.0668C21.5823 26.1361 21.5477 26.2401 21.5873 26.3787C21.6714 26.6608 21.6516 26.9479 21.4091 27.1904C21.0676 27.532 20.5231 27.4627 20.0727 27.0419L21.4536 25.661C21.617 25.4976 21.6318 25.3046 21.4338 25.1363ZM19.5777 25.4283C19.9044 25.1016 20.4092 25.1709 20.8597 25.5719L19.7311 26.7004C19.3154 26.2549 19.256 25.7501 19.5777 25.4283ZM22.5391 21.665C22.4105 21.7937 22.361 22.0214 22.5441 22.2045L22.7965 22.457C22.3313 22.2689 21.8313 22.3233 21.5046 22.65C20.8711 23.2836 21.0047 24.1894 21.8016 24.9863C22.5985 25.7832 23.5192 25.9614 24.133 25.3476C24.5091 24.9714 24.5586 24.4765 24.3409 24.0013L24.7517 24.4121C25.311 24.9714 25.3358 25.511 24.8705 25.9762C24.5438 26.3029 24.2666 26.3128 24.1082 26.4712C23.9746 26.6049 23.9993 26.7682 24.1033 26.8721C24.1924 26.9612 24.3359 27.0058 24.4844 26.9563C24.7962 26.8523 25.1279 26.6494 25.3852 26.392C26.0931 25.6842 26.1525 24.7536 25.2813 23.8825L23.0638 21.665C22.8906 21.4918 22.6728 21.5314 22.5391 21.665ZM23.8261 24.7041C23.4548 25.0754 22.8807 24.9962 22.3511 24.4666C21.8214 23.9369 21.7422 23.3628 22.1135 22.9915C22.4748 22.6302 23.0539 22.7143 23.5786 23.239C24.1033 23.7637 24.1874 24.3428 23.8261 24.7041ZM24.3112 19.9325C24.1132 20.2196 24.1182 20.5116 24.237 20.8086L24.0786 20.6502C23.9054 20.477 23.6826 20.5215 23.5539 20.6502C23.4203 20.7839 23.3757 21.0066 23.549 21.1798L25.6328 23.2637C25.8061 23.4369 26.0337 23.3973 26.1674 23.2637C26.2961 23.135 26.3357 22.9073 26.1624 22.7341L24.8656 21.4372C24.5191 21.0908 24.5241 20.7393 24.8211 20.3928C25.0042 20.18 24.9547 19.9523 24.8409 19.8385C24.7171 19.7147 24.5191 19.7147 24.3657 19.8682C24.3459 19.888 24.3261 19.9078 24.3112 19.9325ZM26.7204 17.4936C26.5868 17.6272 26.5423 17.85 26.7155 18.0232L26.9729 18.2806C26.5076 18.0925 26.0077 18.147 25.681 18.4737C25.0474 19.1072 25.1811 20.013 25.978 20.8099C26.7749 21.6068 27.6955 21.785 28.3093 21.1713C28.6855 20.7951 28.735 20.3001 28.5172 19.8249L28.7993 20.1071C28.9726 20.2803 29.2003 20.2308 29.329 20.1021C29.4626 19.9685 29.5022 19.7408 29.3339 19.5725L27.2501 17.4887C27.0768 17.3154 26.8541 17.36 26.7204 17.4936ZM28.0024 20.5278C27.6312 20.899 27.057 20.8198 26.5274 20.2902C25.9978 19.7606 25.9186 19.1864 26.2898 18.8152C26.6511 18.4539 27.2303 18.538 27.7549 19.0627C28.2796 19.5873 28.3638 20.1665 28.0024 20.5278ZM29.8486 14.306C29.5269 14.6277 29.4428 15.0089 29.6012 15.3949C29.2002 15.2118 28.8389 15.3158 28.5716 15.583C28.2895 15.8652 28.2152 16.2067 28.3687 16.5779L28.2548 16.4641C28.0865 16.2958 27.8737 16.3403 27.745 16.469C27.6064 16.6076 27.5619 16.8304 27.7351 17.0036L29.814 19.0825C29.9872 19.2558 30.21 19.2112 30.3436 19.0776C30.4723 18.9489 30.5169 18.7261 30.3436 18.5529L28.9626 17.1719C28.6211 16.8205 28.5865 16.469 28.829 16.2265C29.0319 16.0236 29.3388 15.984 29.715 16.3601L31.1207 17.7659C31.2989 17.9441 31.5266 17.9045 31.6603 17.7708C31.7939 17.6372 31.8335 17.4095 31.6553 17.2313L30.2793 15.8553C29.9328 15.5088 29.8981 15.1574 30.1407 14.9148C30.3436 14.7119 30.6555 14.6673 31.0316 15.0435L32.4374 16.4492C32.6156 16.6274 32.8432 16.5878 32.9719 16.4591C33.1056 16.3255 33.1452 16.0978 32.967 15.9196L31.487 14.4396C30.8683 13.8209 30.2595 13.8952 29.8486 14.306Z" fill="white"/>
<defs>
<linearGradient id="paint0_linear_19_16" x1="-7" y1="15.5" x2="83.5" y2="96" gradientUnits="userSpaceOnUse">
<stop stop-color="#FDD01B"/>
<stop offset="1" stop-color="#EF2A24"/>
</linearGradient>
</defs>
</svg>
