<svg width="387" height="106" viewBox="0 0 387 106" fill="none" xmlns="http://www.w3.org/2000/svg">
<path d="M19.7373 60.42C22.0473 60.42 23.8673 58.53 23.8673 56.29V17.72H34.0173C36.0473 17.72 37.7273 16.04 37.7273 14.01C37.7273 11.98 36.0473 10.3 34.0173 10.3H5.5273C3.4973 10.3 1.8173 11.98 1.8173 14.01C1.8173 16.04 3.4973 17.72 5.5273 17.72H15.6773V56.29C15.6773 58.53 17.4973 60.42 19.7373 60.42ZM53.5643 60.7C64.7643 60.7 73.0243 52.72 73.0243 41.8C73.0243 30.95 64.7643 22.9 53.5643 22.9C42.3643 22.9 34.1043 30.95 34.1043 41.8C34.1043 52.72 42.3643 60.7 53.5643 60.7ZM53.5643 53.49C46.9143 53.49 41.8743 48.45 41.8743 41.8C41.8743 35.15 46.9143 30.11 53.5643 30.11C60.2843 30.11 65.2543 35.15 65.2543 41.8C65.2543 48.45 60.2843 53.49 53.5643 53.49ZM95.1508 40.61L109.011 28.99C110.131 28.08 110.551 27.1 110.551 26.26C110.551 24.65 109.011 23.32 106.981 23.32C105.861 23.32 104.601 23.74 103.411 24.72L87.1008 38.37C87.4508 32 87.4508 24.16 87.4508 11.14C87.4508 8.97 85.7008 7.08 83.4608 7.08C81.2908 7.08 79.4708 8.97 79.4708 11.14V56.36C79.4708 58.53 81.2908 60.42 83.4608 60.42C85.8408 60.42 87.4508 58.39 87.4508 56.36C87.4508 50.48 87.3108 46.14 87.1708 42.85L103.691 59.09C104.531 59.93 105.511 60.28 106.421 60.28C108.591 60.28 110.481 58.46 110.481 56.64C110.481 55.87 110.201 55.1 109.501 54.47L95.1508 40.61ZM149.883 39.84C148.763 29.48 141.693 22.9 131.473 22.9C120.623 22.9 112.923 31.09 112.923 41.87C112.923 53.21 120.973 60.7 132.033 60.7C138.683 60.7 143.583 57.48 146.593 53.77C147.223 53 147.503 52.23 147.503 51.46C147.503 49.57 145.823 47.89 144.073 47.89C143.163 47.89 142.183 48.31 141.413 49.36C139.383 52.09 136.443 54.05 132.103 54.05C126.083 54.05 121.043 49.99 120.833 44.11H145.963C148.693 44.11 150.163 42.64 149.883 39.84ZM131.473 29.41C137.493 29.41 141.693 33.4 142.113 38.72H120.903C121.323 33.33 125.663 29.41 131.473 29.41ZM176.327 22.9C170.727 22.9 166.737 25.35 164.427 29.48V27.31C164.427 24.65 162.397 23.32 160.367 23.32C158.337 23.32 156.307 24.65 156.307 27.31V56.36C156.307 58.95 158.337 60.35 160.367 60.35C162.397 60.35 164.427 58.95 164.427 56.36V40.33C164.497 33.47 168.277 29.83 173.947 29.83C178.497 29.83 182.907 32.21 182.907 39.91V56.22C182.907 58.95 184.937 60.42 186.967 60.42C188.997 60.42 191.027 58.95 191.027 56.22V38.72C191.027 27.59 184.027 22.9 176.327 22.9ZM216.396 60.7C227.596 60.7 235.856 52.72 235.856 41.8C235.856 30.95 227.596 22.9 216.396 22.9C205.196 22.9 196.936 30.95 196.936 41.8C196.936 52.72 205.196 60.7 216.396 60.7ZM216.396 53.49C209.746 53.49 204.706 48.45 204.706 41.8C204.706 35.15 209.746 30.11 216.396 30.11C223.116 30.11 228.086 35.15 228.086 41.8C228.086 48.45 223.116 53.49 216.396 53.49ZM281.783 22.9C276.393 22.9 272.543 25.21 270.443 29.13C268.413 24.79 264.563 22.9 260.223 22.9C255.743 22.9 252.313 24.93 250.423 28.57V27.17C250.423 24.58 248.393 23.32 246.433 23.32C244.403 23.32 242.303 24.65 242.303 27.31V56.36C242.303 58.95 244.333 60.35 246.363 60.35C248.393 60.35 250.423 58.95 250.423 56.36V39.21C250.493 33.12 253.363 29.83 257.843 29.83C261.343 29.83 264.703 31.93 264.703 38.79V56.22C264.703 58.95 266.733 60.42 268.763 60.42C270.793 60.42 272.823 58.95 272.823 56.22V39.21C272.823 33.19 275.763 29.83 280.243 29.83C283.743 29.83 287.103 31.93 287.103 38.79V56.22C287.103 58.95 289.133 60.42 291.163 60.42C293.193 60.42 295.223 58.95 295.223 56.22V37.53C295.223 27.31 288.853 22.9 281.783 22.9ZM307.066 19.12C309.656 19.12 311.756 17.02 311.756 14.43C311.756 11.84 309.656 9.67 307.066 9.67C304.476 9.67 302.306 11.77 302.306 14.43C302.306 17.02 304.476 19.12 307.066 19.12ZM303.006 56.36C303.006 59.02 305.106 60.42 307.066 60.42C309.026 60.42 311.056 59.02 311.056 56.36V27.31C311.056 24.65 309.026 23.32 307.066 23.32C305.036 23.32 303.006 24.65 303.006 27.31V56.36ZM346.854 58.11C348.324 57.27 348.954 55.94 348.954 54.68C348.954 52.93 347.764 51.32 346.014 51.32C345.524 51.32 345.034 51.46 344.474 51.74C342.304 52.86 339.924 53.35 337.684 53.35C331.384 53.35 325.644 49.29 325.644 41.87C325.644 33.96 331.664 30.32 337.824 30.32C340.134 30.32 342.514 30.88 344.544 31.93C345.174 32.28 345.734 32.42 346.224 32.42C347.974 32.42 349.094 30.88 349.094 29.2C349.094 27.87 348.394 26.54 346.854 25.63C343.914 23.95 340.344 23.04 336.634 23.04C327.324 23.04 317.664 28.85 317.664 41.8C317.664 54.68 327.324 60.7 336.704 60.7C340.344 60.7 343.914 59.79 346.854 58.11ZM369.701 60.7C378.381 60.7 384.541 56.78 384.541 49.57C384.541 36.06 362.771 40.26 362.771 33.12C362.771 30.6 365.501 29.06 368.791 29.06C371.801 29.06 374.321 30.46 376.421 32.77C377.611 34.1 378.801 34.59 379.851 34.59C381.601 34.59 382.931 33.05 382.931 31.23C382.931 30.32 382.651 29.27 381.881 28.36C379.291 25.07 374.111 22.97 368.861 22.97C361.231 22.97 355.001 26.96 355.001 33.82C355.001 46.7 376.491 42.85 376.491 50.06C376.491 52.79 373.831 54.4 369.771 54.4C365.921 54.4 363.471 52.86 361.511 49.92C360.601 48.52 359.481 47.96 358.361 47.96C356.401 47.96 354.581 49.71 354.581 51.81C354.581 52.65 354.861 53.49 355.491 54.4C358.291 58.32 362.981 60.7 369.701 60.7Z" fill="white"/>
<circle cx="216" cy="77" r="27" stroke="url(#paint0_linear_1_10)" stroke-width="4"/>
<path d="M216.5 53.5C221.7 53.9 225.333 50 226.5 48C227.5 48.1667 230.4 48.9 234 50.5C230 57.3 222 60 218.5 60.5C215.666 58 211.3 53.1 216.5 53.5Z" fill="white"/>
<defs>
<linearGradient id="paint0_linear_1_10" x1="182.94" y1="56.99" x2="235.43" y2="103.68" gradientUnits="userSpaceOnUse">
<stop stop-color="#FDD01B"/>
<stop offset="1" stop-color="#EF2A24"/>
</linearGradient>
</defs>
</svg>
